<svg xmlns="http://www.w3.org/2000/svg" xmlns:xlink="http://www.w3.org/1999/xlink" width="500" zoomAndPan="magnify" viewBox="0 0 375 374.999991" height="500" preserveAspectRatio="xMidYMid meet" version="1.0"><defs><clipPath id="bd3fd5191a"><path d="M 0 127.007812 L 217 127.007812 L 217 192 L 0 192 Z M 0 127.007812 " clip-rule="nonzero"/></clipPath></defs><path fill="#aeaeae" d="M -0.0234375 161.105469 C 46.566406 159.273438 93.238281 159.34375 139.316406 151.742188 C 159.242188 148.46875 192.523438 143.472656 206.636719 163.324219 C 208.996094 166.640625 190.59375 192.234375 188.738281 194.96875 C 180 207.789062 178.28125 224.824219 167.6875 236.351562 C 154.277344 250.929688 131.980469 256.0625 117.839844 271.28125 C 107.757812 282.117188 104.304688 295.296875 96.042969 307.089844 C 90.230469 315.410156 80.675781 323.847656 78.707031 334.179688 C 76.699219 344.722656 83.507812 363.855469 78.140625 375.175781 L -0.0234375 375.175781 Z M -0.0234375 161.105469 " fill-opacity="1" fill-rule="evenodd"/><path fill="#878787" d="M 4.636719 375.175781 L -0.0234375 375.175781 L -0.0234375 161.105469 C 46.566406 159.273438 93.238281 159.34375 139.316406 151.742188 C 159.242188 148.46875 192.523438 143.472656 206.636719 163.324219 C 208.566406 166.03125 196.722656 183.496094 191.246094 191.363281 C 158.828125 199.671875 120.222656 201.171875 97.996094 215.652344 C 56.703125 242.550781 68.167969 279.648438 49.769531 317.851562 C 42.117188 333.765625 25.296875 340.785156 15.105469 354.503906 C 10.515625 360.679688 7.128906 367.710938 4.636719 375.175781 Z M 4.636719 375.175781 " fill-opacity="1" fill-rule="evenodd"/><g clip-path="url(#bd3fd5191a)"><path fill="#30b54a" d="M -0.0234375 131.945312 C 20.746094 128.421875 41.808594 127.105469 63.511719 128.421875 C 81.136719 129.488281 98.191406 136.703125 115.59375 136.691406 C 128.835938 136.675781 141.5625 132.75 154.777344 132.304688 C 168.214844 131.847656 180.625 134.207031 193.644531 136.953125 C 210.882812 140.589844 224.25 140.4375 212.488281 158.109375 C 206.527344 167.070312 192.382812 164.742188 183.425781 164.78125 C 167.5625 164.867188 154.015625 171.925781 138.417969 173.4375 C 130.984375 174.160156 124.078125 170.121094 116.769531 169.539062 C 101.296875 168.332031 84.296875 190.460938 64.136719 191.292969 C 55.773438 191.640625 48.507812 186.339844 40.230469 185.3125 C 27.363281 183.71875 15.589844 186.078125 2.832031 185.714844 C 1.863281 185.6875 0.917969 185.605469 -0.0234375 185.492188 Z M -0.0234375 131.945312 " fill-opacity="1" fill-rule="evenodd"/></g></svg>