<svg xmlns="http://www.w3.org/2000/svg" xmlns:xlink="http://www.w3.org/1999/xlink" width="500" zoomAndPan="magnify" viewBox="0 0 375 374.999991" height="500" preserveAspectRatio="xMidYMid meet" version="1.0"><defs><clipPath id="35351cc733"><path d="M 109 117 L 277 117 L 277 348 L 109 348 Z M 109 117 " clip-rule="nonzero"/></clipPath><clipPath id="b0d5d01afc"><path d="M 286.394531 332.996094 L 128.703125 353.351562 L 88.476562 41.683594 L 246.167969 21.332031 Z M 286.394531 332.996094 " clip-rule="nonzero"/></clipPath><clipPath id="6ee9d8207c"><path d="M 286.394531 332.996094 L 128.703125 353.351562 L 88.476562 41.683594 L 246.167969 21.332031 Z M 286.394531 332.996094 " clip-rule="nonzero"/></clipPath><clipPath id="15d2fdef31"><path d="M 286.394531 332.996094 L 128.703125 353.351562 L 88.476562 41.683594 L 246.167969 21.332031 Z M 286.394531 332.996094 " clip-rule="nonzero"/></clipPath><clipPath id="fccd0ac799"><path d="M 160 260 L 207 260 L 207 307 L 160 307 Z M 160 260 " clip-rule="nonzero"/></clipPath><clipPath id="54a91f7532"><path d="M 286.394531 332.996094 L 128.703125 353.351562 L 88.476562 41.683594 L 246.167969 21.332031 Z M 286.394531 332.996094 " clip-rule="nonzero"/></clipPath><clipPath id="511acd877f"><path d="M 286.394531 332.996094 L 128.703125 353.351562 L 88.476562 41.683594 L 246.167969 21.332031 Z M 286.394531 332.996094 " clip-rule="nonzero"/></clipPath><clipPath id="5ed09c5338"><path d="M 286.394531 332.996094 L 128.703125 353.351562 L 88.476562 41.683594 L 246.167969 21.332031 Z M 286.394531 332.996094 " clip-rule="nonzero"/></clipPath><clipPath id="7fd49d0c6c"><path d="M 180 146 L 192 146 L 192 162 L 180 162 Z M 180 146 " clip-rule="nonzero"/></clipPath><clipPath id="0c0592563b"><path d="M 286.394531 332.996094 L 128.703125 353.351562 L 88.476562 41.683594 L 246.167969 21.332031 Z M 286.394531 332.996094 " clip-rule="nonzero"/></clipPath><clipPath id="2ca1e3f779"><path d="M 286.394531 332.996094 L 128.703125 353.351562 L 88.476562 41.683594 L 246.167969 21.332031 Z M 286.394531 332.996094 " clip-rule="nonzero"/></clipPath><clipPath id="af0abcd03b"><path d="M 286.394531 332.996094 L 128.703125 353.351562 L 88.476562 41.683594 L 246.167969 21.332031 Z M 286.394531 332.996094 " clip-rule="nonzero"/></clipPath><clipPath id="765f028200"><path d="M 149 69 L 158 69 L 158 113 L 149 113 Z M 149 69 " clip-rule="nonzero"/></clipPath><clipPath id="95690ada4b"><path d="M 286.394531 332.996094 L 128.703125 353.351562 L 88.476562 41.683594 L 246.167969 21.332031 Z M 286.394531 332.996094 " clip-rule="nonzero"/></clipPath><clipPath id="31a0c991ad"><path d="M 286.394531 332.996094 L 128.703125 353.351562 L 88.476562 41.683594 L 246.167969 21.332031 Z M 286.394531 332.996094 " clip-rule="nonzero"/></clipPath><clipPath id="468264e861"><path d="M 286.394531 332.996094 L 128.703125 353.351562 L 88.476562 41.683594 L 246.167969 21.332031 Z M 286.394531 332.996094 " clip-rule="nonzero"/></clipPath><clipPath id="5874e9e4e2"><path d="M 138 61 L 146 61 L 146 105 L 138 105 Z M 138 61 " clip-rule="nonzero"/></clipPath><clipPath id="792a9fcd16"><path d="M 286.394531 332.996094 L 128.703125 353.351562 L 88.476562 41.683594 L 246.167969 21.332031 Z M 286.394531 332.996094 " clip-rule="nonzero"/></clipPath><clipPath id="af27ae2b66"><path d="M 286.394531 332.996094 L 128.703125 353.351562 L 88.476562 41.683594 L 246.167969 21.332031 Z M 286.394531 332.996094 " clip-rule="nonzero"/></clipPath><clipPath id="448b45c4ac"><path d="M 286.394531 332.996094 L 128.703125 353.351562 L 88.476562 41.683594 L 246.167969 21.332031 Z M 286.394531 332.996094 " clip-rule="nonzero"/></clipPath><clipPath id="a60feb6e6a"><path d="M 140 34 L 150 34 L 150 97 L 140 97 Z M 140 34 " clip-rule="nonzero"/></clipPath><clipPath id="172edf2ce2"><path d="M 286.394531 332.996094 L 128.703125 353.351562 L 88.476562 41.683594 L 246.167969 21.332031 Z M 286.394531 332.996094 " clip-rule="nonzero"/></clipPath><clipPath id="8bd46a5853"><path d="M 286.394531 332.996094 L 128.703125 353.351562 L 88.476562 41.683594 L 246.167969 21.332031 Z M 286.394531 332.996094 " clip-rule="nonzero"/></clipPath><clipPath id="9e499088de"><path d="M 286.394531 332.996094 L 128.703125 353.351562 L 88.476562 41.683594 L 246.167969 21.332031 Z M 286.394531 332.996094 " clip-rule="nonzero"/></clipPath></defs><g clip-path="url(#35351cc733)"><g clip-path="url(#b0d5d01afc)"><g clip-path="url(#6ee9d8207c)"><g clip-path="url(#15d2fdef31)"><path fill="#000000" d="M 156.109375 345.222656 C 159.128906 348.519531 164.246094 348.746094 167.546875 345.726562 C 170.84375 342.707031 171.070312 337.582031 168.050781 334.28125 C 143.363281 307.304688 151.9375 273.488281 155.367188 263.238281 L 155.96875 263 C 156.449219 262.867188 156.925781 262.714844 157.398438 262.523438 C 157.835938 262.347656 158.25 262.144531 158.65625 261.925781 L 180.472656 253.222656 C 181.160156 253.082031 181.847656 252.898438 182.527344 252.640625 C 183.257812 252.359375 183.9375 252.011719 184.585938 251.621094 C 194.785156 258.046875 223.589844 272.339844 269.332031 264.996094 C 273.746094 264.285156 276.75 260.132812 276.042969 255.714844 C 275.332031 251.296875 271.191406 248.246094 266.765625 249 C 217.453125 256.90625 191.71875 237.003906 190.679688 236.183594 C 190.304688 235.875 189.902344 235.617188 189.488281 235.382812 C 187.644531 230.1875 178.757812 203.597656 177.394531 170.800781 C 177.03125 162.136719 177.195312 153.042969 178.148438 143.792969 L 218.769531 145.929688 C 225.75 146.300781 231.699219 140.933594 232.066406 133.957031 C 232.429688 126.976562 227.070312 121.019531 220.097656 120.652344 L 167.882812 117.910156 C 167.105469 117.867188 166.339844 117.898438 165.59375 117.996094 C 160.191406 118.691406 155.730469 122.828125 154.761719 128.367188 C 152.171875 143.1875 151.539062 157.765625 152.058594 171.328125 C 152.078125 171.886719 152.105469 172.4375 152.128906 172.988281 C 148.496094 172.9375 144.824219 172.96875 141.386719 173.078125 C 139.816406 166.46875 138.371094 159.707031 137.132812 152.929688 L 148.980469 155.386719 C 149.253906 147.128906 150.027344 138.632812 151.421875 130.046875 L 124.460938 124.457031 C 123.066406 124.167969 121.652344 124.117188 120.277344 124.296875 C 117.71875 124.625 115.289062 125.734375 113.339844 127.527344 C 110.34375 130.277344 108.851562 134.308594 109.335938 138.351562 C 115.957031 193.625 139.863281 252.953125 140.917969 255.550781 C 137.46875 264.804688 123.347656 309.421875 156.109375 345.222656 Z M 156.109375 345.222656 " fill-opacity="1" fill-rule="nonzero"/></g></g></g></g><g clip-path="url(#fccd0ac799)"><g clip-path="url(#54a91f7532)"><g clip-path="url(#511acd877f)"><g clip-path="url(#5ed09c5338)"><path fill="#000000" d="M 160.882812 287.71875 C 160.746094 286.988281 160.640625 286.25 160.578125 285.503906 C 160.511719 284.761719 160.480469 284.019531 160.488281 283.273438 C 160.496094 282.527344 160.539062 281.78125 160.621094 281.039062 C 160.699219 280.296875 160.816406 279.5625 160.96875 278.832031 C 161.121094 278.101562 161.308594 277.382812 161.53125 276.667969 C 161.753906 275.957031 162.011719 275.257812 162.304688 274.570312 C 162.597656 273.886719 162.921875 273.214844 163.28125 272.5625 C 163.636719 271.90625 164.027344 271.269531 164.445312 270.65625 C 164.867188 270.039062 165.316406 269.445312 165.792969 268.871094 C 166.273438 268.300781 166.777344 267.753906 167.3125 267.230469 C 167.84375 266.707031 168.398438 266.214844 168.980469 265.746094 C 169.5625 265.277344 170.164062 264.839844 170.789062 264.429688 C 171.410156 264.023438 172.054688 263.644531 172.714844 263.300781 C 173.375 262.957031 174.054688 262.644531 174.746094 262.363281 C 175.4375 262.085938 176.140625 261.84375 176.855469 261.632812 C 177.570312 261.421875 178.292969 261.25 179.027344 261.109375 C 179.761719 260.972656 180.496094 260.871094 181.242188 260.804688 C 181.984375 260.738281 182.726562 260.707031 183.472656 260.714844 C 184.21875 260.722656 184.960938 260.765625 185.703125 260.847656 C 186.445312 260.925781 187.179688 261.042969 187.910156 261.195312 C 188.640625 261.347656 189.359375 261.539062 190.074219 261.761719 C 190.785156 261.984375 191.484375 262.242188 192.167969 262.535156 C 192.855469 262.828125 193.523438 263.152344 194.179688 263.511719 C 194.832031 263.867188 195.46875 264.257812 196.085938 264.679688 C 196.699219 265.097656 197.292969 265.546875 197.867188 266.027344 C 198.4375 266.503906 198.984375 267.011719 199.507812 267.542969 C 200.03125 268.078125 200.523438 268.632812 200.992188 269.214844 C 201.460938 269.796875 201.898438 270.398438 202.304688 271.023438 C 202.714844 271.648438 203.089844 272.289062 203.4375 272.953125 C 203.78125 273.613281 204.09375 274.289062 204.371094 274.980469 C 204.648438 275.675781 204.894531 276.378906 205.105469 277.09375 C 205.3125 277.808594 205.488281 278.535156 205.625 279.269531 C 205.765625 280 205.867188 280.738281 205.933594 281.480469 C 206 282.226562 206.027344 282.96875 206.019531 283.714844 C 206.011719 284.460938 205.96875 285.207031 205.890625 285.945312 C 205.808594 286.6875 205.691406 287.425781 205.539062 288.15625 C 205.386719 288.886719 205.199219 289.605469 204.976562 290.316406 C 204.753906 291.03125 204.496094 291.730469 204.203125 292.414062 C 203.910156 293.101562 203.585938 293.773438 203.230469 294.425781 C 202.871094 295.082031 202.484375 295.714844 202.0625 296.332031 C 201.640625 296.949219 201.191406 297.542969 200.714844 298.117188 C 200.234375 298.6875 199.730469 299.234375 199.199219 299.757812 C 198.664062 300.277344 198.109375 300.773438 197.527344 301.242188 C 196.945312 301.710938 196.34375 302.148438 195.722656 302.554688 C 195.097656 302.964844 194.453125 303.339844 193.792969 303.6875 C 193.132812 304.03125 192.457031 304.34375 191.765625 304.621094 C 191.074219 304.902344 190.371094 305.144531 189.652344 305.355469 C 188.9375 305.566406 188.214844 305.738281 187.480469 305.878906 C 186.75 306.015625 186.011719 306.117188 185.269531 306.183594 C 184.527344 306.25 183.78125 306.277344 183.035156 306.269531 C 182.289062 306.265625 181.546875 306.21875 180.804688 306.140625 C 180.0625 306.058594 179.328125 305.941406 178.597656 305.789062 C 177.867188 305.636719 177.148438 305.449219 176.4375 305.226562 C 175.726562 305.003906 175.027344 304.746094 174.339844 304.453125 C 173.652344 304.160156 172.984375 303.835938 172.328125 303.476562 C 171.675781 303.121094 171.039062 302.730469 170.425781 302.308594 C 169.808594 301.890625 169.214844 301.4375 168.644531 300.960938 C 168.070312 300.480469 167.523438 299.976562 167 299.441406 C 166.480469 298.910156 165.984375 298.351562 165.515625 297.773438 C 165.050781 297.191406 164.613281 296.589844 164.203125 295.964844 C 163.796875 295.339844 163.417969 294.695312 163.074219 294.035156 C 162.726562 293.375 162.417969 292.699219 162.136719 292.003906 C 161.859375 291.3125 161.613281 290.609375 161.40625 289.894531 C 161.195312 289.175781 161.023438 288.453125 160.882812 287.71875 Z M 160.882812 287.71875 " fill-opacity="1" fill-rule="nonzero"/></g></g></g></g><g clip-path="url(#7fd49d0c6c)"><g clip-path="url(#0c0592563b)"><g clip-path="url(#2ca1e3f779)"><g clip-path="url(#af0abcd03b)"><path fill="#000000" d="M 180.257812 161.3125 C 185.652344 160.816406 190.320312 156.859375 191.476562 151.277344 C 191.738281 150.019531 191.796875 148.765625 191.6875 147.546875 L 180.898438 146.980469 C 180.480469 151.820312 180.285156 156.609375 180.257812 161.3125 Z M 180.257812 161.3125 " fill-opacity="1" fill-rule="nonzero"/></g></g></g></g><g clip-path="url(#765f028200)"><g clip-path="url(#95690ada4b)"><g clip-path="url(#31a0c991ad)"><g clip-path="url(#468264e861)"><path fill="#000000" d="M 157.042969 112.238281 L 155.371094 112.453125 L 149.863281 69.789062 L 151.539062 69.570312 Z M 157.042969 112.238281 " fill-opacity="1" fill-rule="nonzero"/></g></g></g></g><g clip-path="url(#5874e9e4e2)"><g clip-path="url(#792a9fcd16)"><g clip-path="url(#af27ae2b66)"><g clip-path="url(#448b45c4ac)"><path fill="#000000" d="M 145.863281 104.644531 L 144.1875 104.859375 L 138.679688 62.195312 L 140.355469 61.976562 Z M 145.863281 104.644531 " fill-opacity="1" fill-rule="nonzero"/></g></g></g></g><g clip-path="url(#a60feb6e6a)"><g clip-path="url(#172edf2ce2)"><g clip-path="url(#8bd46a5853)"><g clip-path="url(#9e499088de)"><path fill="#000000" d="M 149.847656 95.996094 L 148.171875 96.210938 L 140.273438 34.992188 L 141.945312 34.777344 Z M 149.847656 95.996094 " fill-opacity="1" fill-rule="nonzero"/></g></g></g></g></svg>