<svg xmlns="http://www.w3.org/2000/svg" xmlns:xlink="http://www.w3.org/1999/xlink" width="500" zoomAndPan="magnify" viewBox="0 0 375 374.999991" height="500" preserveAspectRatio="xMidYMid meet" version="1.0"><defs><clipPath id="254bdfafd9"><path d="M 53.425781 269 L 170 269 L 170 331.335938 L 53.425781 331.335938 Z M 53.425781 269 " clip-rule="nonzero"/></clipPath></defs><path fill="#000000" d="M 257.554688 75.789062 C 258.304688 75.988281 259.042969 76.222656 259.769531 76.492188 C 260.496094 76.765625 261.207031 77.074219 261.902344 77.414062 C 262.597656 77.753906 263.273438 78.128906 263.933594 78.539062 C 264.59375 78.945312 265.230469 79.382812 265.84375 79.855469 C 266.460938 80.324219 267.050781 80.824219 267.617188 81.351562 C 268.183594 81.878906 268.722656 82.433594 269.234375 83.015625 C 269.746094 83.597656 270.230469 84.199219 270.683594 84.828125 C 271.132812 85.457031 271.554688 86.105469 271.941406 86.777344 C 272.332031 87.445312 272.6875 88.132812 273.007812 88.835938 C 273.328125 89.539062 273.613281 90.257812 273.863281 90.988281 C 274.113281 91.722656 274.328125 92.464844 274.503906 93.21875 C 274.679688 93.972656 274.820312 94.730469 274.921875 95.496094 C 275.023438 96.265625 275.085938 97.035156 275.113281 97.808594 C 275.140625 98.578125 275.128906 99.351562 275.078125 100.125 C 275.027344 100.894531 274.941406 101.664062 274.816406 102.425781 C 274.691406 103.191406 274.527344 103.945312 274.328125 104.691406 C 274.128906 105.441406 273.890625 106.175781 273.617188 106.898438 C 273.347656 107.625 273.039062 108.332031 272.695312 109.027344 C 272.355469 109.722656 271.980469 110.398438 271.570312 111.054688 C 271.160156 111.710938 270.722656 112.347656 270.25 112.960938 C 269.777344 113.574219 269.277344 114.164062 268.75 114.730469 C 268.21875 115.292969 267.664062 115.832031 267.082031 116.34375 C 266.5 116.851562 265.894531 117.335938 265.261719 117.785156 C 264.632812 118.238281 263.984375 118.65625 263.3125 119.042969 C 262.640625 119.429688 261.953125 119.785156 261.246094 120.105469 C 260.539062 120.425781 259.820312 120.710938 259.085938 120.957031 C 258.351562 121.207031 257.609375 121.421875 256.851562 121.597656 C 256.097656 121.773438 255.335938 121.914062 254.566406 122.015625 C 253.800781 122.117188 253.027344 122.179688 252.253906 122.207031 C 251.476562 122.230469 250.703125 122.21875 249.929688 122.171875 C 249.15625 122.121094 248.386719 122.035156 247.621094 121.90625 C 246.855469 121.78125 246.097656 121.621094 245.351562 121.421875 C 244.601562 121.222656 243.863281 120.988281 243.136719 120.714844 C 242.410156 120.441406 241.699219 120.136719 241.003906 119.796875 C 240.308594 119.453125 239.632812 119.078125 238.972656 118.671875 C 238.3125 118.265625 237.675781 117.824219 237.0625 117.355469 C 236.445312 116.882812 235.855469 116.386719 235.289062 115.855469 C 234.722656 115.328125 234.183594 114.773438 233.671875 114.195312 C 233.160156 113.613281 232.675781 113.007812 232.222656 112.378906 C 231.773438 111.75 231.351562 111.101562 230.964844 110.433594 C 230.574219 109.765625 230.21875 109.078125 229.898438 108.375 C 229.578125 107.667969 229.292969 106.949219 229.042969 106.21875 C 228.792969 105.488281 228.578125 104.742188 228.402344 103.992188 C 228.226562 103.238281 228.085938 102.476562 227.984375 101.710938 C 227.882812 100.945312 227.820312 100.175781 227.792969 99.402344 C 227.765625 98.628906 227.777344 97.855469 227.828125 97.085938 C 227.878906 96.3125 227.964844 95.546875 228.089844 94.78125 C 228.214844 94.019531 228.378906 93.261719 228.578125 92.515625 C 228.777344 91.769531 229.015625 91.035156 229.289062 90.308594 C 229.558594 89.585938 229.867188 88.875 230.210938 88.183594 C 230.550781 87.488281 230.925781 86.8125 231.335938 86.15625 C 231.746094 85.496094 232.183594 84.863281 232.65625 84.25 C 233.128906 83.632812 233.628906 83.042969 234.15625 82.480469 C 234.6875 81.914062 235.242188 81.375 235.824219 80.867188 C 236.40625 80.355469 237.011719 79.875 237.644531 79.421875 C 238.273438 78.972656 238.921875 78.554688 239.59375 78.164062 C 240.265625 77.777344 240.953125 77.425781 241.660156 77.105469 C 242.367188 76.785156 243.085938 76.5 243.820312 76.25 C 244.554688 76 245.296875 75.789062 246.054688 75.613281 C 246.808594 75.433594 247.570312 75.296875 248.339844 75.195312 C 249.105469 75.09375 249.878906 75.027344 250.652344 75.003906 C 251.429688 74.976562 252.203125 74.988281 252.976562 75.039062 C 253.75 75.089844 254.519531 75.175781 255.285156 75.300781 C 256.050781 75.425781 256.808594 75.589844 257.554688 75.789062 Z M 257.554688 75.789062 " fill-opacity="1" fill-rule="nonzero"/><path fill="#000000" d="M 210.050781 214.351562 C 209.742188 214.351562 209.4375 214.34375 209.132812 214.324219 C 208.558594 214.398438 207.957031 214.4375 207.304688 214.4375 C 205.328125 214.4375 203.167969 214.101562 200.53125 213.59375 C 199.121094 213.324219 197.175781 212.949219 195.015625 212.28125 L 206.394531 249.199219 L 171.820312 292.3125 C 167.28125 297.96875 168.199219 306.226562 173.871094 310.75 C 176.296875 312.6875 179.199219 313.625 182.082031 313.625 C 185.9375 313.625 189.761719 311.941406 192.359375 308.703125 L 231.277344 260.171875 C 233.996094 256.78125 234.859375 252.269531 233.582031 248.121094 L 222.5 212.164062 L 213.074219 214.054688 C 212.09375 214.25 211.078125 214.351562 210.050781 214.351562 Z M 210.050781 214.351562 " fill-opacity="1" fill-rule="nonzero"/><path fill="#000000" d="M 307.777344 116.074219 L 263.921875 143.355469 L 230.390625 120.90625 C 229.578125 120.363281 228.703125 119.988281 227.808594 119.757812 C 224.71875 118.484375 220.992188 118.015625 217.113281 118.597656 L 224.53125 127.5 C 228.351562 132.082031 227.722656 138.914062 223.128906 142.722656 C 221.183594 144.335938 218.726562 145.222656 216.203125 145.222656 C 212.96875 145.222656 209.929688 143.800781 207.863281 141.324219 L 199.160156 130.875 C 198.859375 131.332031 198.5625 131.800781 198.273438 132.285156 C 186.996094 151.589844 182.707031 164.785156 180.675781 188.171875 C 180.496094 205.382812 191.519531 209.410156 200.988281 211.226562 C 204.226562 211.84375 206.871094 212.234375 209.039062 211.898438 C 210.203125 211.984375 211.398438 211.929688 212.597656 211.6875 L 242.597656 205.671875 L 246.484375 248.3125 C 247.105469 255.125 252.839844 260.242188 259.566406 260.242188 C 259.964844 260.242188 260.367188 260.226562 260.773438 260.1875 C 268.007812 259.53125 273.339844 253.152344 272.679688 245.933594 L 267.46875 188.738281 C 267.128906 185.03125 265.226562 181.636719 262.234375 179.410156 C 259.238281 177.183594 255.433594 176.332031 251.777344 177.066406 L 219.523438 183.535156 C 222.984375 170.074219 229.054688 156.878906 233.28125 146.78125 C 233.765625 145.855469 234.175781 144.890625 234.542969 143.914062 L 259.0625 160.328125 C 260.480469 161.277344 262.117188 161.753906 263.753906 161.753906 C 265.296875 161.753906 266.84375 161.328125 268.207031 160.480469 L 316.683594 130.324219 C 320.628906 127.867188 321.832031 122.6875 319.371094 118.753906 C 316.914062 114.820312 311.71875 113.617188 307.777344 116.074219 Z M 307.777344 116.074219 " fill-opacity="1" fill-rule="nonzero"/><path fill="#000000" d="M 209.726562 139.777344 C 211.390625 141.777344 213.789062 142.808594 216.203125 142.808594 C 218.097656 142.808594 220.007812 142.171875 221.578125 140.867188 C 225.15625 137.902344 225.644531 132.609375 222.671875 129.042969 L 196.019531 97.0625 L 217.757812 56.875 C 219.96875 52.792969 218.441406 47.699219 214.347656 45.5 C 210.257812 43.296875 205.152344 44.816406 202.945312 48.898438 L 178.503906 94.078125 C 176.871094 97.09375 177.242188 100.796875 179.4375 103.433594 Z M 209.726562 139.777344 " fill-opacity="1" fill-rule="nonzero"/><g clip-path="url(#254bdfafd9)"><path fill="#000000" d="M 108.835938 329.976562 L 110.757812 331.273438 L 111.261719 329.011719 C 111.371094 328.519531 122.71875 279.839844 169.714844 272.25 L 169.210938 269.140625 C 125.921875 276.132812 111.628906 316.339844 108.757812 326.167969 C 78.808594 307.464844 53.777344 328.445312 53.523438 328.664062 L 55.582031 331.050781 C 56.570312 330.203125 80.109375 310.578125 108.835938 329.976562 Z M 108.835938 329.976562 " fill-opacity="1" fill-rule="nonzero"/></g></svg>