<svg xmlns="http://www.w3.org/2000/svg" xmlns:xlink="http://www.w3.org/1999/xlink" width="500" zoomAndPan="magnify" viewBox="0 0 375 374.999991" height="500" preserveAspectRatio="xMidYMid meet" version="1.0"><defs><clipPath id="18fdd1ce94"><path d="M 42 61.433594 L 323 61.433594 L 323 265 L 42 265 Z M 42 61.433594 " clip-rule="nonzero"/></clipPath></defs><path fill="#000000" d="M 129.5625 253.617188 L 94.1875 261.90625 C 89.765625 263.679688 89.96875 269.992188 94.5 271.507812 L 128.175781 278.597656 L 116.605469 304.015625 C 113.929688 308.253906 118.277344 313.410156 122.929688 311.484375 L 162.804688 291.433594 L 201.855469 310.074219 C 206.15625 312.152344 210.726562 307.785156 208.824219 303.417969 L 197.050781 279.523438 L 232.835938 271.082031 C 237.160156 269.996094 238.164062 264.351562 234.480469 261.863281 L 206.28125 257.914062 L 167.742188 272.773438 C 155.710938 277.449219 141.878906 272.984375 134.960938 262.089844 Z M 129.5625 253.617188 " fill-opacity="1" fill-rule="evenodd"/><path fill="#000000" d="M 113.21875 78.253906 C 126.667969 91.574219 126.734375 113.214844 113.421875 126.640625 C 100.128906 140.015625 78.40625 140.09375 65.007812 126.789062 C 51.5625 113.496094 51.460938 91.855469 64.78125 78.480469 C 78.09375 65.027344 99.773438 64.980469 113.21875 78.253906 Z M 113.21875 78.253906 " fill-opacity="1" fill-rule="evenodd"/><g clip-path="url(#18fdd1ce94)"><path fill="#000000" d="M 199.878906 61.972656 C 193.449219 62.078125 187.863281 66.335938 186.042969 72.503906 L 169.230469 117.832031 L 126.425781 133.984375 C 126.191406 134.085938 125.964844 134.183594 125.734375 134.292969 L 94.496094 147.894531 C 93 148.5625 91.613281 149.492188 90.40625 150.59375 L 47.316406 190.378906 C 44.308594 193.15625 42.585938 197.058594 42.585938 201.167969 L 42.585938 238.386719 C 41.816406 258.671875 72.691406 258.671875 71.917969 238.386719 L 71.917969 207.535156 L 97.164062 184.253906 L 143.441406 256.667969 C 147.863281 263.546875 156.53125 266.375 164.140625 263.394531 L 247.589844 231.226562 L 295.875 253.429688 C 316.285156 265.445312 333.507812 233.972656 312.347656 223.320312 L 257.050781 197.261719 C 252.597656 194.847656 247.355469 194.488281 242.628906 196.289062 L 217.84375 205.863281 L 233.960938 172.464844 L 292.320312 172.464844 C 316.441406 173.71875 316.441406 136.90625 292.320312 138.167969 L 223.144531 138.167969 C 216.566406 138.195312 210.578125 141.945312 207.695312 147.847656 L 183.191406 198.597656 L 155.042969 154.542969 L 186.355469 142.679688 C 190.574219 141.089844 193.835938 137.628906 195.175781 133.316406 L 214.097656 81.125 C 217.203125 71.550781 209.957031 61.796875 199.878906 61.972656 Z M 199.878906 61.972656 " fill-opacity="1" fill-rule="nonzero"/></g></svg>