<svg xmlns="http://www.w3.org/2000/svg" xmlns:xlink="http://www.w3.org/1999/xlink" width="500" zoomAndPan="magnify" viewBox="0 0 375 374.999991" height="500" preserveAspectRatio="xMidYMid meet" version="1.0"><defs><clipPath id="a713aff56c"><path d="M 60.375 37.574219 L 314.625 37.574219 L 314.625 337.425781 L 60.375 337.425781 Z M 60.375 37.574219 " clip-rule="nonzero"/></clipPath><clipPath id="c0455d9bc7"><path d="M 60.375 49 L 309 49 L 309 306 L 60.375 306 Z M 60.375 49 " clip-rule="nonzero"/></clipPath></defs><g clip-path="url(#a713aff56c)"><path fill="#f68812" d="M 205.511719 326.09375 C 205.511719 326.09375 204.746094 326.5 203.15625 324.914062 C 201.570312 323.328125 199.351562 318.566406 196.71875 318.566406 C 194.089844 318.566406 192.1875 318.296875 193.453125 316.121094 C 194.726562 313.945312 201.117188 304.648438 199.984375 303.515625 C 198.847656 302.386719 196.496094 304.738281 193.683594 307.550781 C 193.683594 307.550781 192.820312 305.511719 190.734375 304.421875 C 189.859375 303.964844 188.761719 303.269531 187.605469 302.65625 C 189.734375 302.347656 191.371094 300.523438 191.371094 298.308594 C 191.371094 295.882812 189.402344 293.914062 186.972656 293.914062 C 184.542969 293.914062 182.574219 295.882812 182.574219 298.308594 C 182.574219 299.496094 183.046875 300.566406 183.808594 301.359375 C 183.507812 301.347656 183.21875 301.371094 182.9375 301.433594 C 180.582031 301.976562 178.855469 302.972656 175.324219 299.441406 C 171.789062 295.902344 167.257812 292.277344 166.4375 293.09375 C 165.625 293.910156 168.523438 297.535156 170.699219 300.617188 C 172.875 303.699219 177.679688 308.777344 177.679688 311.496094 C 177.679688 311.496094 176.957031 328.179688 182.9375 327.8125 C 188.921875 327.453125 191.054688 326.320312 193.183594 328.453125 C 195.316406 330.582031 201.34375 337.425781 202.160156 337.425781 C 202.976562 337.425781 212.222656 326.726562 210.5 324.1875 C 208.777344 321.648438 205.511719 326.09375 205.511719 326.09375 Z M 92.71875 64.78125 C 83.644531 70.625 76.800781 75.660156 71.863281 80.710938 C 64.84375 87.914062 61.550781 95.023438 60.683594 105.117188 C 60.46875 107.71875 60.371094 109.980469 60.375 111.945312 C 60.367188 117.835938 61.234375 121.011719 62.042969 122.585938 C 62.046875 122.59375 62.050781 122.597656 62.054688 122.609375 C 63.140625 113.714844 68.367188 87.214844 92.71875 64.78125 Z M 314.605469 131.734375 C 314.070312 116.054688 302.589844 92.328125 280.941406 72.753906 C 259.296875 53.15625 227.59375 37.574219 186.574219 37.574219 C 183.550781 37.574219 180.480469 37.660156 177.359375 37.832031 L 177.335938 37.835938 L 177.28125 37.835938 C 177.277344 37.835938 174.765625 37.851562 170.449219 38.167969 C 166.128906 38.484375 160.035156 39.105469 152.972656 40.316406 C 144.054688 41.84375 133.59375 44.320312 123.207031 48.292969 C 74.949219 70.851562 66.617188 111.417969 65.175781 122.796875 C 66.488281 121.53125 68.300781 119.136719 70.175781 114.609375 C 74.558594 104.175781 96.820312 69.019531 134.851562 56.507812 C 135.832031 56.125 161.839844 46.054688 194.765625 46.046875 C 225.664062 46.027344 262.796875 55 290.5 89.441406 C 306.578125 109.425781 311.957031 124.742188 311.960938 136.359375 C 311.972656 147.046875 307.351562 154.433594 302.765625 159.011719 C 301.945312 159.835938 301.128906 160.566406 300.335938 161.21875 C 301.851562 160.648438 303.457031 159.84375 305.019531 158.699219 C 309.910156 155.089844 314.621094 148.214844 314.648438 134.113281 C 314.648438 133.34375 314.632812 132.546875 314.605469 131.734375 " fill-opacity="1" fill-rule="nonzero"/></g><g clip-path="url(#c0455d9bc7)"><path fill="#f4c41b" d="M 288.074219 91.390625 C 261.089844 57.871094 225.117188 49.179688 194.765625 49.160156 C 172.113281 49.15625 152.691406 54.046875 142.847656 57.082031 C 153.65625 58.335938 175.109375 61.886719 199.160156 71.648438 C 211.824219 76.785156 225.210938 83.664062 238.121094 92.847656 L 233.203125 113.453125 L 233.609375 113.550781 L 238.484375 93.101562 C 260.1875 108.625 280.507812 130.6875 293.707031 161.992188 C 294.039062 161.808594 294.417969 161.59375 294.835938 161.335938 C 296.394531 160.382812 298.480469 158.898438 300.558594 156.8125 C 304.714844 152.628906 308.835938 146.128906 308.847656 136.359375 C 308.855469 125.742188 303.898438 111.054688 288.074219 91.390625 Z M 138.566406 248.980469 L 166.265625 293.203125 L 166.613281 292.984375 L 138.914062 248.765625 Z M 148.660156 169.59375 L 171.007812 256.574219 L 171.40625 256.46875 L 149.0625 169.492188 Z M 145.714844 218.203125 L 178.828125 301.941406 L 179.214844 301.785156 L 146.101562 218.050781 Z M 60.609375 124.527344 L 91.222656 173.402344 L 91.574219 173.1875 L 60.957031 124.308594 Z M 145.324219 154.941406 L 121.332031 61.554688 L 120.933594 61.65625 L 144.925781 155.042969 Z M 139.457031 201.25 L 116.039062 142.027344 L 115.65625 142.179688 L 139.074219 201.402344 Z M 105.714844 115.917969 L 95.601562 90.339844 L 95.214844 90.496094 L 105.332031 116.070312 Z M 166.085938 63.933594 L 165.675781 63.96875 L 167.066406 79.433594 L 167.476562 79.398438 Z M 101.410156 189.660156 L 134.023438 241.734375 L 134.375 241.515625 L 101.757812 189.441406 Z M 226.863281 140.058594 L 213.148438 197.550781 L 213.550781 197.644531 L 227.261719 140.148438 Z M 203.144531 281.902344 L 227.097656 232.4375 L 226.722656 232.257812 L 202.769531 281.722656 Z M 267.757812 147.53125 L 233.835938 217.574219 L 234.207031 217.757812 L 268.125 147.707031 Z M 169.183594 98.371094 L 168.773438 98.40625 L 171.105469 124.308594 L 171.515625 124.269531 Z M 199.050781 304.035156 L 199.398438 304.257812 L 287.871094 163.523438 L 287.523438 163.304688 Z M 172.019531 134.480469 L 180.570312 229.5 L 180.980469 229.464844 L 172.433594 134.441406 Z M 181.886719 244.132812 L 185.3125 282.136719 L 185.722656 282.105469 L 182.300781 244.097656 Z M 191.515625 304.964844 L 191.886719 305.140625 L 197.679688 293.191406 L 197.304688 293.011719 Z M 189.871094 295.144531 L 190.273438 295.238281 L 198.691406 259.941406 L 198.289062 259.84375 L 189.871094 295.144531 " fill-opacity="1" fill-rule="nonzero"/></g></svg>